<?xml version="1.0" encoding="UTF-8"?>
<!DOCTYPE svg PUBLIC "-//W3C//DTD SVG 1.1//EN" "http://www.w3.org/Graphics/SVG/1.1/DTD/svg11.dtd">
<!-- Creator: CorelDRAW 2020 (64 Bit) -->
<svg xmlns="http://www.w3.org/2000/svg" xml:space="preserve" width="69.5313mm" height="69.5313mm" version="1.1" style="shape-rendering:geometricPrecision; text-rendering:geometricPrecision; image-rendering:optimizeQuality; fill-rule:evenodd; clip-rule:evenodd"
viewBox="0 0 1361.26 1361.26"
 xmlns:xlink="http://www.w3.org/1999/xlink"
 xmlns:xodm="http://www.corel.com/coreldraw/odm/2003">
 <defs>
  <style type="text/css">
   <![CDATA[
    .fil0 {fill:white;fill-rule:nonzero}
   ]]>
  </style>
 </defs>
 <g id="Camada_x0020_1">
  <metadata id="CorelCorpID_0Corel-Layer"/>
  <g id="_2612175959264">
   <path class="fil0" d="M680.63 0c-28.2,0 -51.05,22.85 -51.05,51.05 0,28.2 22.85,51.05 51.05,51.05 319.01,0 578.54,259.53 578.54,578.54 0,319.01 -259.53,578.54 -578.54,578.54 -319.01,0 -578.54,-259.53 -578.54,-578.54 0,-28.2 -22.85,-51.05 -51.05,-51.05 -28.2,0 -51.05,22.85 -51.05,51.05 0,375.3 305.33,680.63 680.63,680.63 375.3,0 680.63,-305.33 680.63,-680.63 0,-375.3 -305.33,-680.63 -680.63,-680.63l-0 0zm0 0z"/>
   <path class="fil0" d="M405.22 164.32c6.51,0 13.12,-1.25 19.52,-3.89l69.01 -28.58c26.04,-10.8 38.42,-40.65 27.62,-66.71 -10.78,-26.04 -40.65,-38.41 -66.69,-27.62l-69.01 28.58c-26.04,10.8 -38.42,40.65 -27.64,66.71 8.15,19.66 27.16,31.52 47.19,31.52l0 -0zm0 0z"/>
   <path class="fil0" d="M209.04 312.91c13.07,0 26.12,-4.98 36.09,-14.96l52.82 -52.81c19.94,-19.94 19.94,-52.26 0,-72.2 -19.93,-19.93 -52.26,-19.93 -72.18,0l-52.83 52.83c-19.93,19.93 -19.93,52.24 0,72.18 9.97,9.97 23.04,14.96 36.11,14.96zm0 0z"/>
   <path class="fil0" d="M65.15 521.36c6.38,2.64 13,3.91 19.52,3.91 20.02,0 39.03,-11.87 47.18,-31.53l28.58 -69.01c10.78,-26.04 -1.58,-55.91 -27.62,-66.69 -26.06,-10.8 -55.91,1.58 -66.71,27.62l-28.58 69.01c-10.78,26.06 1.58,55.91 27.64,66.69l0 0zm0 0z"/>
   <path class="fil0" d="M680.63 416.17c-28.2,0 -51.05,22.85 -51.05,51.05l0 162.37 -162.37 0c-28.2,0 -51.05,22.85 -51.05,51.05 0,28.2 22.85,51.05 51.05,51.05l162.37 0 0 162.37c0,28.2 22.85,51.05 51.05,51.05 28.2,0 51.05,-22.85 51.05,-51.05l0 -162.37 162.37 0c28.19,0 51.05,-22.85 51.05,-51.05 0,-28.2 -22.85,-51.05 -51.05,-51.05l-162.37 0 0 -162.37c0,-28.19 -22.85,-51.05 -51.05,-51.05l0 0zm0 0z"/>
  </g>
 </g>
</svg>
