<?xml version="1.0" encoding="UTF-8"?>
<!DOCTYPE svg PUBLIC "-//W3C//DTD SVG 1.1//EN" "http://www.w3.org/Graphics/SVG/1.1/DTD/svg11.dtd">
<!-- Creator: CorelDRAW 2020 (64 Bit) -->
<svg xmlns="http://www.w3.org/2000/svg" xml:space="preserve" width="18.0613mm" height="21.4341mm" version="1.1" style="shape-rendering:geometricPrecision; text-rendering:geometricPrecision; image-rendering:optimizeQuality; fill-rule:evenodd; clip-rule:evenodd"
viewBox="0 0 239.31 284"
 xmlns:xlink="http://www.w3.org/1999/xlink"
 xmlns:xodm="http://www.corel.com/coreldraw/odm/2003">
 <defs>
  <style type="text/css">
   <![CDATA[
    .str0 {stroke:#FEFEFE;stroke-width:7.01;stroke-miterlimit:22.9256}
    .fil0 {fill:none;fill-rule:nonzero}
    .fil2 {fill:#50C878}
    .fil1 {fill:#FEFEFE;fill-rule:nonzero}
    .fil3 {fill:white;fill-rule:nonzero}
   ]]>
  </style>
 </defs>
 <g id="Camada_x0020_1">
  <metadata id="CorelCorpID_0Corel-Layer"/>
  <path class="fil0 str0" d="M154.88 20.23c-10.81,0 -10.81,-16.72 -21.63,-16.72 -10.81,0 -10.81,16.72 -21.63,16.72 -10.81,0 -10.81,-16.72 -21.63,-16.72 -10.81,0 -10.81,16.72 -21.63,16.72 -10.81,0 -10.81,-16.72 -21.63,-16.72 -10.81,0 -10.81,16.72 -21.62,16.72 -7.91,0 -10.03,-8.94 -14.83,-13.75 -2.5,-2.5 -6.79,-0.68 -6.79,2.86l0 265.32c0,3.54 4.29,5.36 6.79,2.86 4.8,-4.81 6.93,-13.75 14.83,-13.75 10.81,0 10.81,16.72 21.62,16.72 10.81,0 10.81,-16.72 21.63,-16.72 10.81,0 10.81,16.72 21.63,16.72 10.81,0 10.81,-16.72 21.63,-16.72 10.81,0 10.81,16.72 21.63,16.72 10.81,0 10.81,-16.72 21.63,-16.72 7.91,0 10.04,8.95 14.84,13.75 2.5,2.5 6.79,0.68 6.79,-2.86l0 -265.32c0,-3.54 -4.29,-5.36 -6.79,-2.86 -4.8,4.81 -6.92,13.75 -14.84,13.75zm0 0z"/>
  <g id="_2612180047312">
   <path class="fil1" d="M94.94 129.08l-71.61 0c-1.65,0 -2.99,-1.34 -2.99,-2.99l0 -11.4c0,-1.65 1.34,-2.99 2.99,-2.99l71.61 0c1.65,0 2.99,1.34 2.99,2.99l0 11.4c0,1.65 -1.34,2.99 -2.99,2.99l0 0zm0 0z"/>
   <path class="fil1" d="M154.51 237.19l-43.61 0c-2.85,0 -5.16,-2.31 -5.16,-5.16l0 -7.05c0,-2.85 2.31,-5.16 5.16,-5.16l43.61 0c2.85,0 5.16,2.31 5.16,5.16l0 7.05c0,2.85 -2.31,5.16 -5.16,5.16zm0 0z"/>
   <path class="fil1" d="M20.34 49.89l0 11.22c0,1.7 1.38,3.08 3.08,3.08l133.17 0c1.7,0 3.08,-1.38 3.08,-3.08l0 -11.22c0,-1.7 -1.38,-3.08 -3.08,-3.08l-133.17 0c-1.7,0 -3.08,1.38 -3.08,3.08zm0 0z"/>
  </g>
  <path class="fil1" d="M159.68 82.2l-139.33 0c-2.31,0 -4.18,1.87 -4.18,4.18 0,2.31 1.87,4.18 4.18,4.18l139.33 0c2.31,0 4.18,-1.87 4.18,-4.18 0,-2.31 -1.87,-4.18 -4.18,-4.18l0 0zm0 0z"/>
  <path class="fil1" d="M70.9 151.58c0,-2.31 -1.87,-4.18 -4.18,-4.18l-46.38 -0c-2.31,0 -4.18,1.87 -4.18,4.18 0,2.31 1.87,4.18 4.18,4.18l46.38 0c2.31,0 4.18,-1.87 4.18,-4.18zm0 0z"/>
  <path class="fil1" d="M59.14 168.49l-38.79 0c-2.31,0 -4.18,1.87 -4.18,4.18 0,2.31 1.87,4.18 4.18,4.18l38.79 0c2.31,0 4.18,-1.87 4.18,-4.18 0,-2.31 -1.87,-4.18 -4.18,-4.18l0 0zm0 0z"/>
  <path class="fil1" d="M59.14 189.58l-38.79 0c-2.31,0 -4.18,1.87 -4.18,4.18 0,2.31 1.87,4.18 4.18,4.18l38.79 0c2.31,0 4.18,-1.87 4.18,-4.18 0,-2.31 -1.87,-4.18 -4.18,-4.18l0 0zm0 0z"/>
  <path class="fil1" d="M159.68 189.58l-19.4 0c-2.31,0 -4.18,1.87 -4.18,4.18 0,2.31 1.87,4.18 4.18,4.18l19.4 0c2.31,0 4.18,-1.87 4.18,-4.18 0,-2.31 -1.87,-4.18 -4.18,-4.18l0 0zm0 0z"/>
  <path class="fil1" d="M159.68 168.49l-19.4 0c-2.31,0 -4.18,1.87 -4.18,4.18 0,2.31 1.87,4.18 4.18,4.18l19.4 0c2.31,0 4.18,-1.87 4.18,-4.18 0,-2.31 -1.87,-4.18 -4.18,-4.18l0 0zm0 0z"/>
  <path class="fil1" d="M159.68 147.4l-19.4 0c-2.31,0 -4.18,1.87 -4.18,4.18 0,2.31 1.87,4.18 4.18,4.18l19.4 0c2.31,0 4.18,-1.87 4.18,-4.18 0,-2.31 -1.87,-4.18 -4.18,-4.18l0 -0zm0 0z"/>
  <circle class="fil2" cx="166.63" cy="208.12" r="72.68"/>
  <g id="_2612180058832">
   <path class="fil3" d="M166.63 145.44c-2.6,0 -4.7,2.11 -4.7,4.7 0,2.6 2.1,4.7 4.7,4.7 29.38,0 53.29,23.9 53.29,53.29 0,29.38 -23.9,53.29 -53.29,53.29 -29.38,0 -53.29,-23.9 -53.29,-53.29 0,-2.6 -2.1,-4.7 -4.7,-4.7 -2.6,0 -4.7,2.1 -4.7,4.7 0,34.57 28.12,62.69 62.69,62.69 34.57,0 62.69,-28.12 62.69,-62.69 0,-34.57 -28.12,-62.69 -62.69,-62.69l0 0zm0 0z"/>
   <path class="fil3" d="M141.26 160.57c0.6,0 1.21,-0.12 1.8,-0.36l6.35 -2.63c2.4,-0.99 3.54,-3.74 2.55,-6.14 -0.99,-2.4 -3.74,-3.54 -6.14,-2.54l-6.36 2.63c-2.4,0.99 -3.54,3.74 -2.55,6.14 0.75,1.81 2.5,2.9 4.35,2.9l0 0zm0 0z"/>
   <path class="fil3" d="M123.2 174.26c1.2,0 2.41,-0.46 3.32,-1.38l4.87 -4.87c1.84,-1.84 1.84,-4.81 0,-6.65 -1.84,-1.84 -4.81,-1.84 -6.65,0l-4.87 4.87c-1.84,1.84 -1.84,4.81 0,6.65 0.92,0.92 2.12,1.38 3.33,1.38zm0 0z"/>
   <path class="fil3" d="M109.94 193.46c0.59,0.24 1.2,0.36 1.8,0.36 1.84,0 3.59,-1.09 4.34,-2.9l2.63 -6.36c0.99,-2.4 -0.15,-5.15 -2.54,-6.14 -2.4,-0.99 -5.15,0.15 -6.14,2.55l-2.63 6.35c-0.99,2.4 0.15,5.15 2.55,6.14l0 0zm0 0z"/>
   <path class="fil3" d="M166.63 183.77c-2.6,0 -4.7,2.11 -4.7,4.7l0 14.96 -14.96 0c-2.6,0 -4.7,2.1 -4.7,4.7 0,2.6 2.11,4.7 4.7,4.7l14.96 0 0 14.96c0,2.6 2.1,4.7 4.7,4.7 2.6,0 4.7,-2.11 4.7,-4.7l0 -14.96 14.96 0c2.6,0 4.7,-2.1 4.7,-4.7 0,-2.6 -2.11,-4.7 -4.7,-4.7l-14.96 0 0 -14.96c0,-2.6 -2.1,-4.7 -4.7,-4.7l0 0zm0 0z"/>
  </g>
 </g>
</svg>
