<?xml version="1.0" encoding="UTF-8"?>
<!DOCTYPE svg PUBLIC "-//W3C//DTD SVG 1.1//EN" "http://www.w3.org/Graphics/SVG/1.1/DTD/svg11.dtd">
<!-- Creator: CorelDRAW 2020 (64 Bit) -->
<svg xmlns="http://www.w3.org/2000/svg" xml:space="preserve" width="21.0518mm" height="21.1727mm" version="1.1" style="shape-rendering:geometricPrecision; text-rendering:geometricPrecision; image-rendering:optimizeQuality; fill-rule:evenodd; clip-rule:evenodd"
viewBox="0 0 546.24 549.38"
 xmlns:xlink="http://www.w3.org/1999/xlink"
 xmlns:xodm="http://www.corel.com/coreldraw/odm/2003">
 <defs>
  <style type="text/css">
   <![CDATA[
    .str0 {stroke:#FEFEFE;stroke-width:5.49;stroke-miterlimit:22.9256}
    .fil1 {fill:#50C878}
    .fil0 {fill:#FEFEFE;fill-rule:nonzero}
    .fil2 {fill:white;fill-rule:nonzero}
   ]]>
  </style>
 </defs>
 <g id="Camada_x0020_1">
  <metadata id="CorelCorpID_0Corel-Layer"/>
  <path class="fil0 str0" d="M478.14 206.13c-0.01,-0.43 0.04,-1.79 -0.06,-2.2 -0.73,-17.49 -5.9,-31.86 -15.41,-42.74 -13.74,-15.74 -36.22,-23.73 -66.81,-23.73l-64.54 0 -54.69 -118.38c-3.21,-6.95 -11.48,-9.99 -18.43,-6.78l-7.71 3.56 -2.37 -5.09c-1.56,-3.36 -4.35,-5.91 -7.83,-7.18 -3.48,-1.27 -7.25,-1.11 -10.62,0.46l-179.89 83.75c-6.94,3.23 -9.96,11.51 -6.73,18.45l15.69 33.7c-26.12,7.57 -45.28,31.69 -45.28,60.22l0 91.78c-6.66,7.45 -10.72,17.27 -10.72,28.02l0 33.23c0,10.75 4.06,20.57 10.72,28.02l0 40.33c0,23.88 13.43,44.68 33.13,55.26 10.58,19.72 31.39,33.17 55.29,33.17l313.55 0c34.57,0 62.7,-28.13 62.7,-62.7 0,-3.51 0,-237.8 0,-241.13zm-216.56 -186.51c2.92,-1.35 6.39,-0.07 7.73,2.85l65.01 140.73 -198.5 0 -17.01 -36.82c-0.69,-1.49 -0.04,-3.27 1.46,-3.96l128.12 -59.19c1.49,-0.69 3.27,-0.03 3.96,1.46l32.43 70.2c0.93,2.02 3.32,2.9 5.35,1.97 2.02,-0.93 2.9,-3.33 1.97,-5.35l-32.43 -70.21c-2.56,-5.52 -9.13,-7.94 -14.65,-5.39l-128.12 59.19c-5.52,2.55 -7.94,9.12 -5.39,14.65l15.45 33.45 -24.06 0 -24.31 -52.62c-1.35,-2.92 -0.07,-6.39 2.85,-7.74l180.14 -83.22zm-211.23 83.23c-0.66,-1.41 -0.73,-2.99 -0.19,-4.46 0.53,-1.46 1.6,-2.63 3.02,-3.29l179.89 -83.75c1.41,-0.66 3,-0.73 4.46,-0.19 1.46,0.53 2.63,1.6 3.29,3.02l2.36 5.07 -165.11 76.28c-6.95,3.21 -9.99,11.48 -6.78,18.43l22.97 49.72c-4.86,0.59 -9.55,1.73 -14.01,3.37l-29.89 -64.19zm-28.84 97.32c0,-25.3 17.29,-46.63 40.67,-52.82l10.7 22.98c-20.01,10.49 -33.7,31.45 -33.7,55.56l0 52.38c-6.47,0.87 -12.47,3.21 -17.67,6.68l0 -84.78 -0 0zm0 221.37l0 -33.33c5.19,3.47 11.2,5.81 17.67,6.68l0 52.38c0,5.65 0.76,11.12 2.17,16.33 -12.1,-10.03 -19.84,-25.14 -19.84,-42.05l0 0zm23.31 -34.32c-18.76,0 -34.03,-15.26 -34.03,-34.02l0 -33.23c0,-18.76 15.26,-34.02 34.03,-34.02l136.13 0c18.76,0 34.02,15.26 34.02,34.02l0 33.23c0,18.76 -15.26,34.02 -34.02,34.02l-136.13 0zm425.26 -173.75l0 8.05 0 225.74c0,1.03 -0.03,2.04 -0.09,3.06l-1.05 8.06c-1.1,5.29 -2.97,10.3 -5.47,14.91l-3.23 5.22c-1.53,2.18 -3.2,4.26 -5.03,6.2l-3.79 3.65c-2.24,1.96 -4.64,3.75 -7.17,5.33l-5.25 2.88c-7.14,3.42 -15.12,5.35 -23.55,5.35l-313.56 0c-26.32,0 -48.36,-18.71 -53.51,-43.53l-1.05 -8.06c-0.05,-1.01 -0.09,-2.03 -0.09,-3.06l0 -51.99 133.71 -0c23.2,0 42.08,-18.88 42.08,-42.08l0 -33.23c0,-23.2 -18.88,-42.08 -42.08,-42.08l-133.71 0 0 -51.99c0,-1.47 0.08,-2.92 0.19,-4.37l1.25 -8.05c5.64,-24.16 27.35,-42.22 53.2,-42.22l307.3 0c2.22,0 4.03,-1.8 4.03,-4.03 0,-2.22 -1.8,-4.03 -4.03,-4.03l-65.99 0 -8.16 -17.67 60.82 0c6.07,0 11.76,0.35 17.11,1 -0.94,-0.1 -1.87,-0.18 -2.79,-0.25l5.08 0.53c18.33,2.61 32.19,9.2 41.34,19.68 8.64,9.9 13.16,23.33 13.48,39.92l0 7.06 0 0z"/>
  <path class="fil0 str0" d="M60.73 307.8c-15.87,0 -28.78,12.91 -28.78,28.78 0,15.87 12.91,28.78 28.78,28.78 15.87,0 28.78,-12.91 28.78,-28.78 0,-15.87 -12.91,-28.78 -28.78,-28.78zm0 49.5c-11.43,0 -20.72,-9.29 -20.72,-20.72 0,-11.42 9.29,-20.72 20.72,-20.72 11.42,0 20.72,9.29 20.72,20.72 -0,11.43 -9.3,20.72 -20.72,20.72z"/>
  <circle class="fil1" cx="403.92" cy="407.06" r="142.32"/>
  <g id="_2612180037184">
   <path class="fil2" d="M403.92 284.29c-5.09,0 -9.21,4.12 -9.21,9.21 0,5.09 4.12,9.21 9.21,9.21 57.54,0 104.35,46.81 104.35,104.35 0,57.54 -46.81,104.35 -104.35,104.35 -57.54,0 -104.35,-46.81 -104.35,-104.35 0,-5.09 -4.12,-9.21 -9.21,-9.21 -5.09,0 -9.21,4.12 -9.21,9.21 0,67.69 55.07,122.77 122.77,122.77 67.69,0 122.77,-55.07 122.77,-122.77 0,-67.69 -55.07,-122.77 -122.77,-122.77l0 0zm0 0z"/>
   <path class="fil2" d="M354.24 313.93c1.18,0 2.37,-0.23 3.52,-0.7l12.44 -5.16c4.7,-1.95 6.93,-7.33 4.98,-12.03 -1.95,-4.7 -7.33,-6.93 -12.03,-4.98l-12.45 5.16c-4.7,1.95 -6.93,7.33 -4.99,12.03 1.47,3.54 4.9,5.69 8.51,5.69l0 0zm0 0z"/>
   <path class="fil2" d="M318.85 340.73c2.36,0 4.71,-0.9 6.51,-2.7l9.53 -9.53c3.6,-3.6 3.6,-9.42 0,-13.02 -3.6,-3.6 -9.43,-3.6 -13.02,0l-9.53 9.53c-3.59,3.59 -3.59,9.42 0,13.02 1.8,1.8 4.16,2.7 6.51,2.7zm0 0z"/>
   <path class="fil2" d="M292.9 378.33c1.15,0.48 2.35,0.7 3.52,0.7 3.61,0 7.04,-2.14 8.51,-5.69l5.16 -12.45c1.94,-4.7 -0.29,-10.08 -4.98,-12.03 -4.7,-1.95 -10.09,0.29 -12.03,4.98l-5.16 12.44c-1.95,4.7 0.29,10.09 4.98,12.03l0 0zm0 0z"/>
   <path class="fil2" d="M403.92 359.36c-5.09,0 -9.21,4.12 -9.21,9.21l0 29.29 -29.29 0c-5.09,0 -9.21,4.12 -9.21,9.21 0,5.09 4.12,9.21 9.21,9.21l29.29 0 0 29.29c0,5.09 4.12,9.21 9.21,9.21 5.09,0 9.21,-4.12 9.21,-9.21l0 -29.29 29.29 0c5.09,0 9.21,-4.12 9.21,-9.21 0,-5.09 -4.12,-9.21 -9.21,-9.21l-29.29 0 0 -29.29c0,-5.09 -4.12,-9.21 -9.21,-9.21l0 0zm0 0z"/>
  </g>
 </g>
</svg>
